<svg width="24" height="24" viewBox="0 0 24 24" fill="none" xmlns="http://www.w3.org/2000/svg">
<path fill-rule="evenodd" clip-rule="evenodd" d="M12.6577 1.2468C18.1887 6.07633 21 10.2933 21 14.0001C21 19.2494 16.9029 23.0001 12 23.0001C7.09705 23.0001 3 19.2494 3 14.0001C3 10.2933 5.81131 6.07633 11.3423 1.2468L12 0.672485L12.6577 1.2468ZM5 14.0001C5 18.1035 8.16411 21.0001 12 21.0001C15.8359 21.0001 19 18.1035 19 14.0001C19 11.1508 16.6934 7.56651 12 3.33665C7.30661 7.56651 5 11.1508 5 14.0001ZM12 18.0001V20.0001C15.3137 20.0001 18 17.3138 18 14.0001H16C16 16.2092 14.2091 18.0001 12 18.0001Z" fill="#333333"/>
</svg>
