<svg width="57" height="57" viewBox="0 0 57 57" fill="none" xmlns="http://www.w3.org/2000/svg">
<path d="M1.81711 38.9196C1.62559 39.8307 1.92335 40.7758 2.60237 41.4128C3.28184 42.0494 4.24386 42.2861 5.14123 42.0369L11.0157 40.4061C11.3483 40.3244 11.6992 40.3655 12.0037 40.5222C14.9104 41.9404 18.1028 42.6758 21.3372 42.6726C22.418 42.6721 23.4974 42.5918 24.5662 42.4328C30.0135 41.6194 34.935 38.731 38.3011 34.3721C41.6671 30.0127 43.2167 24.5213 42.6261 19.0453C42.0355 13.5698 39.3502 8.53453 35.1319 4.99385C30.9136 1.45282 25.4895 -0.319523 19.9948 0.0474483C15.0166 0.394774 10.3144 2.46219 6.69306 5.89568C3.07157 9.32916 0.756945 13.9149 0.145288 18.8671C-0.391318 23.4296 0.567162 28.043 2.87695 32.0145C3.05954 32.311 3.12561 32.6641 3.06221 33.0065L1.81711 38.9196ZM20.0034 32.6727C19.473 32.6727 18.9641 32.462 18.5891 32.087C18.2141 31.712 18.0034 31.2035 18.0034 30.6727C18.0034 30.1424 18.2141 29.6339 18.5891 29.2584C18.9641 28.8834 19.473 28.6727 20.0034 28.6727C20.5337 28.6727 21.0427 28.8834 21.4177 29.2584C21.7927 29.6339 22.0034 30.1424 22.0034 30.6727C22.0034 31.2035 21.7927 31.712 21.4177 32.087C21.0427 32.462 20.5337 32.6727 20.0034 32.6727ZM15.8502 10.7916C17.4561 9.51341 19.5596 9.04336 21.5565 9.51707C22.7579 9.79609 23.857 10.4059 24.7289 11.2782C25.6012 12.1501 26.211 13.2492 26.49 14.4506C26.8628 16.0506 26.636 17.7318 25.8521 19.176C25.0686 20.6198 23.7829 21.7264 22.2382 22.2863C21.7257 22.4332 21.3628 22.889 21.3342 23.4212V25.3399C21.3342 26.0761 20.7373 26.6729 20.0007 26.6729C19.2646 26.6729 18.6673 26.076 18.6673 25.3399V23.4238C18.6766 22.6126 18.9396 21.8247 19.4195 21.1706C19.8989 20.5162 20.5713 20.0287 21.3422 19.7756C22.2677 19.447 23.0399 18.7889 23.5118 17.9278C23.9837 17.0662 24.1216 16.0613 23.9002 15.1041C23.6788 14.1474 23.1127 13.3055 22.3105 12.7385C21.5078 12.172 20.5252 11.9207 19.5494 12.0323C18.5735 12.1439 17.6726 12.6104 17.0185 13.3435C16.3649 14.0761 16.0033 15.0243 16.0033 16.0064C16.0033 16.7426 15.4064 17.3399 14.6698 17.3399C13.9337 17.3399 13.3368 16.7426 13.3368 16.0064C13.3323 13.9752 14.2582 12.0538 15.8502 10.7917L15.8502 10.7916Z" fill="url(#paint0_linear_2120_3565)"/>
<path d="M56.0034 38.6727C56.0011 38.0272 55.9654 37.3816 55.8967 36.7397C55.2699 30.8865 50.7766 25.2597 45.2833 22.7397C45.2565 23.3129 45.2034 23.8732 45.1364 24.4329H45.1369C44.4762 29.599 42.1493 34.4088 38.5092 38.1335C34.8687 41.8581 30.1132 44.2942 24.9629 45.0724C24.1897 45.1791 23.4161 45.259 22.6428 45.2992H22.6433C23.95 48.4701 26.1705 51.1813 29.0214 53.0875C31.8728 54.9942 35.2268 56.0098 38.6563 56.0058C41.0286 56.0031 43.375 55.5129 45.55 54.5656C45.8241 54.437 46.1326 54.3995 46.4299 54.4589L51.1897 55.5254V55.5258C52.0808 55.7209 53.0103 55.4495 53.6562 54.8057C54.3058 54.1629 54.5781 53.2303 54.3763 52.3392L53.4964 48.366V48.3655C53.4214 48.0124 53.4888 47.6436 53.683 47.3392C55.2066 44.7052 56.0071 41.7151 56.0031 38.6722L56.0034 38.6727Z" fill="url(#paint1_linear_2120_3565)"/>
<defs>
<linearGradient id="paint0_linear_2120_3565" x1="29.2136" y1="34.8347" x2="7.19894" y2="-5.35573" gradientUnits="userSpaceOnUse">
<stop stop-color="#046CB7"/>
<stop offset="1" stop-color="#3CA3DD"/>
</linearGradient>
<linearGradient id="paint1_linear_2120_3565" x1="45.4405" y1="49.8957" x2="28.2882" y2="18.5495" gradientUnits="userSpaceOnUse">
<stop stop-color="#046CB7"/>
<stop offset="1" stop-color="#3CA3DD"/>
</linearGradient>
</defs>
</svg>
