<svg width="120" height="120" viewBox="0 0 120 120" fill="none" xmlns="http://www.w3.org/2000/svg">
<mask id="mask0_1341_1410" style="mask-type:alpha" maskUnits="userSpaceOnUse" x="0" y="0" width="120" height="120">
<path d="M60 120C93.1371 120 120 93.1371 120 60C120 26.8629 93.1371 0 60 0C26.8629 0 0 26.8629 0 60C0 93.1371 26.8629 120 60 120Z" fill="#005398"/>
</mask>
<g mask="url(#mask0_1341_1410)">
<g opacity="0.6">
<path d="M55.8227 47H-0.713039C-2.52838 47 -4 48.4716 -4 50.287V119.313C-4 121.128 -2.52838 122.6 -0.713039 122.6H55.8227C57.638 122.6 59.1096 121.128 59.1096 119.313V50.287C59.1096 48.4716 57.638 47 55.8227 47Z" fill="white"/>
<path d="M21.6386 53.5737H4.5464C3.45719 53.5737 2.57422 54.4567 2.57422 55.5459C2.57422 56.6351 3.45719 57.5181 4.5464 57.5181H21.6386C22.7278 57.5181 23.6108 56.6351 23.6108 55.5459C23.6108 54.4567 22.7278 53.5737 21.6386 53.5737Z" fill="#80ADD2"/>
<path d="M21.6386 81.1846H4.5464C3.45719 81.1846 2.57422 82.0675 2.57422 83.1567C2.57422 84.2459 3.45719 85.1289 4.5464 85.1289H21.6386C22.7278 85.1289 23.6108 84.2459 23.6108 83.1567C23.6108 82.0675 22.7278 81.1846 21.6386 81.1846Z" fill="#80ADD2"/>
<path d="M49.2499 63.4348H5.86199C4.40972 63.4348 3.23242 64.6121 3.23242 66.0644V72.6383C3.23242 74.0906 4.40972 75.2679 5.86199 75.2679H49.2499C50.7021 75.2679 51.8794 74.0906 51.8794 72.6383V66.0644C51.8794 64.6121 50.7021 63.4348 49.2499 63.4348Z" stroke="#025CA6" stroke-width="2"/>
<path d="M49.2491 90.3882H5.86118C4.04584 90.3882 2.57422 91.8598 2.57422 93.6751V98.9343C2.57422 100.75 4.04584 102.221 5.86118 102.221H49.2491C51.0644 102.221 52.536 100.75 52.536 98.9343V93.6751C52.536 91.8598 51.0644 90.3882 49.2491 90.3882Z" fill="#80ADD2"/>
</g>
<g filter="url(#filter0_d_1341_1410)">
<path d="M87.8227 22H31.287C29.4716 22 28 23.4716 28 25.287V94.3131C28 96.1285 29.4716 97.6001 31.287 97.6001H87.8227C89.638 97.6001 91.1096 96.1285 91.1096 94.3131V25.287C91.1096 23.4716 89.638 22 87.8227 22Z" fill="white"/>
<path d="M31.287 22.5H87.8227C89.3619 22.5 90.6096 23.7478 90.6096 25.287V94.3131C90.6096 95.8523 89.3619 97.1001 87.8227 97.1001H31.287C29.7478 97.1001 28.5 95.8523 28.5 94.3131V25.287C28.5 23.7478 29.7478 22.5 31.287 22.5Z" stroke="#FAFAFA"/>
</g>
<path d="M53.6386 28.5737H36.5464C35.4572 28.5737 34.5742 29.4567 34.5742 30.5459C34.5742 31.6351 35.4572 32.5181 36.5464 32.5181H53.6386C54.7278 32.5181 55.6108 31.6351 55.6108 30.5459C55.6108 29.4567 54.7278 28.5737 53.6386 28.5737Z" fill="#80ADD2"/>
<path d="M53.6386 56.1846H36.5464C35.4572 56.1846 34.5742 57.0675 34.5742 58.1567C34.5742 59.2459 35.4572 60.1289 36.5464 60.1289H53.6386C54.7278 60.1289 55.6108 59.2459 55.6108 58.1567C55.6108 57.0675 54.7278 56.1846 53.6386 56.1846Z" fill="#80ADD2"/>
<path d="M81.2499 38.4348H37.862C36.4097 38.4348 35.2324 39.6121 35.2324 41.0644V47.6383C35.2324 49.0906 36.4097 50.2679 37.862 50.2679H81.2499C82.7021 50.2679 83.8794 49.0906 83.8794 47.6383V41.0644C83.8794 39.6121 82.7021 38.4348 81.2499 38.4348Z" stroke="#025CA6" stroke-width="2"/>
<path d="M81.2491 65.3882H37.8612C36.0458 65.3882 34.5742 66.8598 34.5742 68.6751V73.9343C34.5742 75.7496 36.0458 77.2212 37.8612 77.2212H81.2491C83.0644 77.2212 84.536 75.7496 84.536 73.9343V68.6751C84.536 66.8598 83.0644 65.3882 81.2491 65.3882Z" fill="#80ADD2"/>
</g>
<defs>
<filter id="filter0_d_1341_1410" x="24" y="20" width="71.1096" height="83.6001" filterUnits="userSpaceOnUse" color-interpolation-filters="sRGB">
<feFlood flood-opacity="0" result="BackgroundImageFix"/>
<feColorMatrix in="SourceAlpha" type="matrix" values="0 0 0 0 0 0 0 0 0 0 0 0 0 0 0 0 0 0 127 0" result="hardAlpha"/>
<feOffset dy="2"/>
<feGaussianBlur stdDeviation="2"/>
<feComposite in2="hardAlpha" operator="out"/>
<feColorMatrix type="matrix" values="0 0 0 0 0 0 0 0 0 0 0 0 0 0 0 0 0 0 0.04 0"/>
<feBlend mode="normal" in2="BackgroundImageFix" result="effect1_dropShadow_1341_1410"/>
<feBlend mode="normal" in="SourceGraphic" in2="effect1_dropShadow_1341_1410" result="shape"/>
</filter>
</defs>
</svg>
