<svg width="23" height="27" viewBox="0 0 23 27" fill="none" xmlns="http://www.w3.org/2000/svg">
<path d="M16.3333 3.83325H18.7499C19.3909 3.83325 20.0055 4.08786 20.4588 4.54108C20.912 4.99429 21.1666 5.60898 21.1666 6.24992V23.1666C21.1666 23.8075 20.912 24.4222 20.4588 24.8754C20.0055 25.3286 19.3909 25.5833 18.7499 25.5833H4.24992C3.60898 25.5833 2.99429 25.3286 2.54108 24.8754C2.08786 24.4222 1.83325 23.8075 1.83325 23.1666V6.24992C1.83325 5.60898 2.08786 4.99429 2.54108 4.54108C2.99429 4.08786 3.60898 3.83325 4.24992 3.83325H6.66659" stroke="#025CA6" stroke-width="2" stroke-linecap="round" stroke-linejoin="round"/>
<path d="M15.1248 1.41663H7.87484C7.20749 1.41663 6.6665 1.95762 6.6665 2.62496V5.04163C6.6665 5.70897 7.20749 6.24996 7.87484 6.24996H15.1248C15.7922 6.24996 16.3332 5.70897 16.3332 5.04163V2.62496C16.3332 1.95762 15.7922 1.41663 15.1248 1.41663Z" stroke="#025CA6" stroke-width="2" stroke-linecap="round" stroke-linejoin="round"/>
<path d="M6 10H12" stroke="#025CA6" stroke-width="2" stroke-linecap="round"/>
<path d="M6 14H9" stroke="#025CA6" stroke-width="2" stroke-linecap="round"/>
</svg>
