<svg width="29" height="29" viewBox="0 0 29 29" fill="none" xmlns="http://www.w3.org/2000/svg">
<path d="M3.625 24.1666H2.625H3.625ZM24.6029 10.2744L25.2168 9.48507L24.6029 10.2744ZM5.01106 11.0638L13.8861 4.161L12.6582 2.58229L3.78318 9.48507L5.01106 11.0638ZM15.1139 4.161L23.9889 11.0638L25.2168 9.48507L16.3418 2.58229L15.1139 4.161ZM24.375 11.8531V24.1666H26.375V11.8531H24.375ZM24.375 24.1666C24.375 24.5423 24.2257 24.9027 23.9601 25.1684L25.3743 26.5826C26.015 25.9418 26.375 25.0728 26.375 24.1666H24.375ZM23.9601 25.1684C23.6944 25.434 23.3341 25.5833 22.9583 25.5833V27.5833C23.8645 27.5833 24.7335 27.2233 25.3743 26.5826L23.9601 25.1684ZM22.9583 25.5833H6.04167V27.5833H22.9583V25.5833ZM6.04167 25.5833C5.66594 25.5833 5.30561 25.434 5.03993 25.1684L3.62572 26.5826C4.26647 27.2233 5.13551 27.5833 6.04167 27.5833V25.5833ZM5.03993 25.1684C4.77426 24.9027 4.625 24.5423 4.625 24.1666H2.625C2.625 25.0728 2.98497 25.9418 3.62572 26.5826L5.03993 25.1684ZM4.625 24.1666V11.8531H2.625V24.1666H4.625ZM23.9889 11.0638C24.2325 11.2532 24.375 11.5445 24.375 11.8531H26.375C26.375 10.9274 25.9476 10.0534 25.2168 9.48507L23.9889 11.0638ZM13.8861 4.161C14.2472 3.88013 14.7528 3.88013 15.1139 4.161L16.3418 2.58229C15.2585 1.7397 13.7415 1.7397 12.6582 2.58229L13.8861 4.161ZM3.78318 9.48507C3.05242 10.0534 2.625 10.9274 2.625 11.8531H4.625C4.625 11.5445 4.76747 11.2532 5.01106 11.0638L3.78318 9.48507Z" fill="#828282"/>
<path d="M10.875 26.5832V16.4351H18.125V26.5832" stroke="#828282" stroke-width="2" stroke-linecap="round" stroke-linejoin="round"/>
</svg>
