<svg xmlns="http://www.w3.org/2000/svg" viewBox="0 0 434.68 83.62"><title>viettel-logo</title><path d="M131.08,214.19s-4.29.31-4.3,4.25l0,13.22s3.36-4.49,8.08-4.49h5.62s4.6-.27,4.6-4.1v-4.72s0-4.16-4.7-4.16Zm120.57,3a4.69,4.69,0,0,0-5.11,4.61v10.48H235.22v7s0,4.52,5.11,4.52h6.2V279c.34,11.51,12.48,18.19,22.88,18.19h13.83c3.77,0,4.36-5.2,4.36-5.2v-6.7a31.48,31.48,0,0,1-12.49-.08c-10.64-3.1-10.31-11.14-10.31-11.14V243.88h36V279c.34,11.51,12.49,18.19,22.88,18.19h13.83c3.77,0,4.36-5.2,4.36-5.2v-6.7a31.47,31.47,0,0,1-12.49-.08c-10.64-3.1-10.31-11.14-10.31-11.14V243.88h17.52c5.12,0,5-4.15,5-4.15v-7.41H319.1v-10a4.79,4.79,0,0,0-4.36-5.11h-8.8a4.69,4.69,0,0,0-5.11,4.61v10.48h-36v-10a4.79,4.79,0,0,0-4.36-5.11Zm185.74,0a4.69,4.69,0,0,0-5.11,4.61V279c.34,11.51,12.48,18.19,22.88,18.19H469c3.77,0,4.36-5.2,4.36-5.2v-6.7a31.48,31.48,0,0,1-12.49-.08c-10.64-3.1-10.31-11.14-10.31-11.14v-51.7a4.79,4.79,0,0,0-4.36-5.11ZM190.15,231.86c-3,0-15.67.38-25.38,6-6.37,3.66-10.44,9.79-10.62,22.6,0,0,0,19,2.72,23.52A26.48,26.48,0,0,0,167,294.29c3,1.68,9.15,2.89,13.7,2.89h44.66s4.36-.42,4.36-5.79v-5.87H185.36s-11.9-.34-12.15-13.83c0-.71,0-1.28,0-1.93h50.3s8.8-.67,8.8-12.07c0,0,1.42-11.73-7.71-19s-23.79-6.6-33.77-6.82h-.66Zm190.89,0c-3,0-15.67.38-25.38,6-6.37,3.66-10.44,9.79-10.62,22.6,0,0,0,19,2.72,23.52a26.48,26.48,0,0,0,10.18,10.35c3,1.68,9.15,2.89,13.7,2.89h44.66s4.36-.42,4.36-5.79v-5.87H376.25s-11.9-.34-12.15-13.83c0-.71,0-1.28,0-1.93h50.3s8.8-.67,8.8-12.07c0,0,1.42-11.73-7.71-19s-23.79-6.6-33.77-6.82H381Zm-342.38.69,31.17,60.17s1.66,5.09,10.91,5.09h3.32s6.86.31,10.18-5.61,31.18-59.65,31.18-59.65H111.19s-5.4.83-8.83,7.9-19.22,40.63-19.22,40.63-1.25,1.87-2.18,0-20.58-42.81-20.58-42.81-3.53-5.72-7.48-5.72Zm92.59,0s-4.47,0-4.47,5.09v55.18a4.69,4.69,0,0,0,4.78,4.36h10s3.53-.21,3.53-5.61V237s-.73-4.47-4.26-4.47Zm61.9,10.81c5.22,0,13,.76,17.1,4.8a9,9,0,0,1,3.1,6.37c0,3.94-2.51,3.94-3.27,3.94H182a12.31,12.31,0,0,0-8.83,3.67,61.67,61.67,0,0,1,.37-7.27s-.08-9.72,14.24-11.23A49,49,0,0,1,193.15,243.36Zm190.89,0c5.22,0,13,.76,17.1,4.8a9,9,0,0,1,3.1,6.37c0,3.94-2.51,3.94-3.27,3.94H372.9a12.31,12.31,0,0,0-8.83,3.67,61.67,61.67,0,0,1,.37-7.27s-.08-9.72,14.24-11.23a49.05,49.05,0,0,1,5.36-.27Z" transform="translate(-38.66 -214.19)" style="fill:#ef0032"/></svg>