<svg width="17" height="17" viewBox="0 0 17 17" fill="none" xmlns="http://www.w3.org/2000/svg">
<path fill-rule="evenodd" clip-rule="evenodd" d="M5.1 5.95C5.1 2.66391 7.76391 0 11.05 0C14.3361 0 17 2.66391 17 5.95C17 9.23609 14.3361 11.9 11.05 11.9H9.35V13.6H7.65V15.3H5.95V17H0V12.3979L5.2258 7.17211C5.14246 6.7732 5.1 6.36421 5.1 5.95ZM7.65005 10.2H11.05C13.3973 10.2 15.3 8.2972 15.3 5.94999C15.3 3.60278 13.3973 1.69999 11.05 1.69999C8.70284 1.69999 6.80005 3.60278 6.80005 5.94999C6.80005 6.37383 6.86183 6.78841 6.98201 7.18493L7.12975 7.67236L1.70005 13.1021V15.3H4.25005V13.6H5.95005V11.9H7.65005V10.2ZM9.35002 5.95C9.35002 6.88888 10.1111 7.65 11.05 7.65C11.9889 7.65 12.75 6.88888 12.75 5.95C12.75 5.01112 11.9889 4.25 11.05 4.25C10.1111 4.25 9.35002 5.01112 9.35002 5.95Z" fill="#025CA6"/>
</svg>
