<svg width="121" height="120" viewBox="0 0 121 120" fill="none" xmlns="http://www.w3.org/2000/svg">
<mask id="mask0_1567_3409" style="mask-type:alpha" maskUnits="userSpaceOnUse" x="0" y="0" width="121" height="120">
<path d="M60.5 120C93.6371 120 120.5 93.1371 120.5 60C120.5 26.8629 93.6371 0 60.5 0C27.3629 0 0.5 26.8629 0.5 60C0.5 93.1371 27.3629 120 60.5 120Z" fill="#E9F5FE"/>
</mask>
<g mask="url(#mask0_1567_3409)">
<path d="M96.5 120H24.5V42.4C27.8936 42.3962 31.1471 41.0464 33.5468 38.6468C35.9464 36.2471 37.2962 32.9936 37.3 29.6H83.7C83.6964 31.2811 84.0262 32.9462 84.6704 34.499C85.3146 36.0518 86.2603 37.4615 87.4528 38.6464C88.6377 39.8393 90.0474 40.7853 91.6004 41.4296C93.1533 42.0739 94.8187 42.4037 96.5 42.4V120Z" fill="white"/>
<path d="M60.4998 81.5999C71.1037 81.5999 79.6998 73.0038 79.6998 62.3999C79.6998 51.796 71.1037 43.1999 60.4998 43.1999C49.8959 43.1999 41.2998 51.796 41.2998 62.3999C41.2998 73.0038 49.8959 81.5999 60.4998 81.5999Z" fill="#025CA6"/>
<path d="M67.2882 71.451L60.5 64.6628L53.7118 71.451L51.449 69.1883L58.2373 62.4L51.449 55.6118L53.7118 53.3491L60.5 60.1373L67.2882 53.3491L69.551 55.6118L62.7627 62.4L69.551 69.1883L67.2882 71.451Z" fill="white"/>
<path d="M70.9002 86.3999H50.1002C48.7747 86.3999 47.7002 87.4744 47.7002 88.7999C47.7002 90.1254 48.7747 91.1999 50.1002 91.1999H70.9002C72.2257 91.1999 73.3002 90.1254 73.3002 88.7999C73.3002 87.4744 72.2257 86.3999 70.9002 86.3999Z" fill="#80ADD2"/>
<path d="M78.1 95.9999H42.9C41.5745 95.9999 40.5 97.0744 40.5 98.3999C40.5 99.7254 41.5745 100.8 42.9 100.8H78.1C79.4255 100.8 80.5 99.7254 80.5 98.3999C80.5 97.0744 79.4255 95.9999 78.1 95.9999Z" fill="#80ADD2"/>
</g>
</svg>
