<svg width="25" height="24" viewBox="0 0 25 24" fill="none" xmlns="http://www.w3.org/2000/svg">
<path fill-rule="evenodd" clip-rule="evenodd" d="M4.92893 19.0711C4.08874 18.2309 3.8477 16.9493 4.11119 15.2677C2.7358 14.2649 2 13.1882 2 12C2 10.8118 2.7358 9.73511 4.11119 8.73235C3.8477 7.05074 4.08874 5.76913 4.92893 4.92893C5.76913 4.08874 7.05074 3.8477 8.73235 4.11119C9.73511 2.7358 10.8118 2 12 2C13.1882 2 14.2649 2.7358 15.2677 4.11119C16.9493 3.8477 18.2309 4.08874 19.0711 4.92893C19.9113 5.76913 20.1523 7.05074 19.8888 8.73235C21.2642 9.73511 22 10.8118 22 12C22 13.1882 21.2642 14.2649 19.8888 15.2677C20.1523 16.9493 19.9113 18.2309 19.0711 19.0711C18.2309 19.9113 16.9493 20.1523 15.2677 19.8888C14.2649 21.2642 13.1882 22 12 22C10.8118 22 9.73511 21.2642 8.73235 19.8888C7.05074 20.1523 5.76913 19.9113 4.92893 19.0711ZM8.95695 17.9982C9.32597 17.9192 9.70545 18.0763 9.91051 18.3932C10.7112 19.6303 11.4252 20.1818 12.0001 20.1818C12.5749 20.1818 13.2889 19.6303 14.0896 18.3932C14.2947 18.0763 14.6741 17.9192 15.0432 17.9982C16.4841 18.3068 17.379 18.1919 17.7855 17.7854C18.192 17.3789 18.3068 16.4841 17.9982 15.0431C17.9192 14.6741 18.0764 14.2946 18.3932 14.0896C19.6303 13.2889 20.1819 12.5749 20.1819 12C20.1819 11.4251 19.6303 10.7112 18.3932 9.91047C18.0764 9.70542 17.9192 9.32594 17.9982 8.95691C18.3068 7.51597 18.192 6.6211 17.7855 6.2146C17.379 5.8081 16.4841 5.69326 15.0432 6.00185C14.6741 6.08088 14.2947 5.9237 14.0896 5.60687C13.2889 4.36976 12.5749 3.8182 12.0001 3.8182C11.4252 3.8182 10.7112 4.36976 9.91051 5.60687C9.70545 5.9237 9.32597 6.08088 8.95695 6.00185C7.51601 5.69326 6.62114 5.8081 6.21464 6.2146C5.80814 6.6211 5.69329 7.51597 6.00189 8.95691C6.08092 9.32594 5.92373 9.70542 5.60691 9.91047C4.3698 10.7112 3.81824 11.4251 3.81824 12C3.81824 12.5749 4.3698 13.2889 5.60691 14.0896C5.92373 14.2946 6.08092 14.6741 6.00189 15.0431C5.69329 16.4841 5.80814 17.3789 6.21464 17.7854C6.62114 18.1919 7.51601 18.3068 8.95695 17.9982ZM14.9936 8.62998L11.0909 12.5326L9.00647 10.4482L7.72083 11.7338L11.0909 15.1039L16.2792 9.91563L14.9936 8.62998Z" fill="#025CA6"/>
</svg>
